<?xml version="1.0" encoding="UTF-8" standalone="no"?>
<!-- Created with Inkscape (http://www.inkscape.org/) -->

<svg
   width="10"
   height="9"
   viewBox="0 0 2.6458332 2.38125"
   version="1.1"
   id="svg1"
   inkscape:version="1.3.2 (091e20e, 2023-11-25, custom)"
   sodipodi:docname="bullet.svg"
   xmlns:inkscape="http://www.inkscape.org/namespaces/inkscape"
   xmlns:sodipodi="http://sodipodi.sourceforge.net/DTD/sodipodi-0.dtd"
   xmlns="http://www.w3.org/2000/svg"
   xmlns:svg="http://www.w3.org/2000/svg">
  <sodipodi:namedview
     id="namedview1"
     pagecolor="#ffffff"
     bordercolor="#000000"
     borderopacity="0.25"
     inkscape:showpageshadow="2"
     inkscape:pageopacity="0.0"
     inkscape:pagecheckerboard="0"
     inkscape:deskcolor="#d1d1d1"
     inkscape:document-units="mm"
     showgrid="true"
     inkscape:zoom="128"
     inkscape:cx="4.21875"
     inkscape:cy="4.4882812"
     inkscape:window-width="2560"
     inkscape:window-height="1406"
     inkscape:window-x="4444"
     inkscape:window-y="-11"
     inkscape:window-maximized="1"
     inkscape:current-layer="layer1">
    <inkscape:grid
       id="grid1"
       units="px"
       originx="0"
       originy="0"
       spacingx="0.26458333"
       spacingy="0.26458333"
       empcolor="#0099e5"
       empopacity="0.30196078"
       color="#0099e5"
       opacity="0.14901961"
       empspacing="5"
       dotted="false"
       gridanglex="30"
       gridanglez="30"
       visible="true" />
  </sodipodi:namedview>
  <defs
     id="defs1" />
  <g
     inkscape:label="Layer 1"
     inkscape:groupmode="layer"
     id="layer1">
    <path
       style="fill:#000000;stroke-width:0.264583"
       d="m 1.3229166,0.26458332 c 0,0 0.8611245,0.39933245 1.0583333,0.79374998 0.039442,0.078884 0.039442,0.1856998 0,0.2645833 -0.1972088,0.3944175 -1.0583333,0.7937499 -1.0583333,0.7937499 0,0 0.4370183,-0.4894046 0.5291666,-0.7937499 0.025557,-0.08441 0.025557,-0.1801731 0,-0.2645833 C 1.7599349,0.75398801 1.3229166,0.26458332 1.3229166,0.26458332 Z"
       id="path1"
       sodipodi:nodetypes="caacaac" />
    <path
       style="fill:#000000;stroke-width:0.264583"
       d="m 0.26458333,0.26458332 c 0,0 0.86112447,0.39933245 1.05833327,0.79374998 0.039442,0.078884 0.039442,0.1856998 0,0.2645833 -0.1972088,0.3944175 -1.05833327,0.7937499 -1.05833327,0.7937499 0,0 0.43701827,-0.4894046 0.5291666,-0.7937499 0.0255573,-0.08441 0.0255573,-0.1801731 0,-0.2645833 C 0.7016016,0.75398801 0.26458333,0.26458332 0.26458333,0.26458332 Z"
       id="path2"
       sodipodi:nodetypes="caacaac" />
  </g>
</svg>
